<svg width="520" height="268" viewBox="40 45 520 268" xmlns="http://www.w3.org/2000/svg"><rect x="40" y="45" width="520" height="268" fill="#fafaf7"/>  <text x="60" y="232" font-family="EB Garamond" font-style="italic" font-weight="600" font-size="240" fill="#0e1c35">&#934;</text>
  <path d="M240 196 C 254 142 282 136 296 184 C 304 210 296 234 283 232 C 272 230 274 208 294 196 C 322 178 350 236 378 198 C 395 174 414 176 431 204 C 448 232 469 204 487 178 C 500 158 524 166 520 206 C 517 224 506 232 494 234" fill="none" stroke="#8b6914" stroke-width="4.2" stroke-linecap="round" stroke-linejoin="round"/>
  <path d="M500 220 C 520 252 488 270 442 271 C 350 274 240 272 175 259 C 152 254 148 244 167 241" fill="none" stroke="#8b6914" stroke-width="2.4" stroke-linecap="round"/></svg>